<svg id="레이어_1" data-name="레이어 1" xmlns="http://www.w3.org/2000/svg" viewBox="0 0 961.37 478.53"><defs><style>.cls-1{fill:#444;}.cls-2{fill:#fff;}.cls-3{fill:#75dd31;}.cls-4{fill:#68a044;}.cls-5{fill:#34bbea;}.cls-6{fill:#92ef56;}.cls-7{fill:#51f2b1;}</style></defs><path class="cls-1" d="M714.39,732.59a77.92,77.92,0,0,1-32.32-7.09,4.6,4.6,0,0,1-2.32-6,77.31,77.31,0,0,1,70.9-46.65A77.92,77.92,0,0,1,783,679.89a4.66,4.66,0,0,1,2.32,6.05,77.31,77.31,0,0,1-70.9,46.65Z" transform="translate(-478.87 -300.94)"/><path class="cls-2" d="M714.39,731.05a76.38,76.38,0,0,1-31.68-6.95,3.08,3.08,0,0,1-1.54-4,75.82,75.82,0,0,1,69.48-45.73,76.46,76.46,0,0,1,31.67,6.95,3.08,3.08,0,0,1,1.55,4,75.76,75.76,0,0,1-69.48,45.73Z" transform="translate(-478.87 -300.94)"/><ellipse class="cls-3" cx="732.52" cy="702.7" rx="51.96" ry="21.89" transform="translate(-681.85 7.8) rotate(-20.97)"/><ellipse class="cls-4" cx="732.52" cy="702.7" rx="41.37" ry="1.75" transform="translate(-681.85 7.8) rotate(-20.97)"/><path class="cls-1" d="M758,765.87a78.07,78.07,0,0,1-30.21,13.5,4.61,4.61,0,0,1-5.46-3.48,77.3,77.3,0,0,1,29.3-79.66,77.94,77.94,0,0,1,30.21-13.51,4.65,4.65,0,0,1,5.45,3.49A77.31,77.31,0,0,1,758,765.87Z" transform="translate(-478.87 -300.94)"/><path class="cls-2" d="M757.05,764.63a76.4,76.4,0,0,1-29.6,13.23,3.09,3.09,0,0,1-3.64-2.32,75.76,75.76,0,0,1,28.71-78.07,76.33,76.33,0,0,1,29.6-13.23,3.09,3.09,0,0,1,3.64,2.32,75.81,75.81,0,0,1-28.71,78.07Z" transform="translate(-478.87 -300.94)"/><ellipse class="cls-3" cx="754.78" cy="731.05" rx="51.96" ry="21.89" transform="translate(-746.47 672.7) rotate(-57.43)"/><ellipse class="cls-4" cx="754.78" cy="731.05" rx="41.37" ry="1.75" transform="translate(-746.47 672.7) rotate(-57.43)"/><path class="cls-1" d="M1159.35,363.79a57.13,57.13,0,0,1-20.63,12.71,3.36,3.36,0,0,1-4.3-2A56.67,56.67,0,0,1,1148,313.84a57.19,57.19,0,0,1,20.63-12.71,3.42,3.42,0,0,1,4.3,2,56.64,56.64,0,0,1-13.59,60.65Z" transform="translate(-478.87 -300.94)"/><path class="cls-2" d="M1158.56,363a55.89,55.89,0,0,1-20.22,12.46,2.26,2.26,0,0,1-2.87-1.33,55.47,55.47,0,0,1,13.33-59.44A55.93,55.93,0,0,1,1169,302.2a2.26,2.26,0,0,1,2.87,1.33A55.51,55.51,0,0,1,1158.56,363Z" transform="translate(-478.87 -300.94)"/><ellipse class="cls-3" cx="1153.68" cy="338.82" rx="38.05" ry="16.03" transform="translate(-119.95 940.16) rotate(-64.99)"/><ellipse class="cls-4" cx="1153.68" cy="338.82" rx="30.29" ry="1.28" transform="translate(-119.95 940.16) rotate(-64.99)"/><path class="cls-1" d="M1160.74,383.62a57.08,57.08,0,0,1-23.4-6.32,3.37,3.37,0,0,1-1.49-4.5,56.62,56.62,0,0,1,53.49-31.66,57,57,0,0,1,23.4,6.31,3.4,3.4,0,0,1,1.48,4.5,56.65,56.65,0,0,1-53.48,31.67Z" transform="translate(-478.87 -300.94)"/><path class="cls-2" d="M1160.79,382.49a56,56,0,0,1-22.93-6.19,2.27,2.27,0,0,1-1-3,55.46,55.46,0,0,1,52.42-31,55.85,55.85,0,0,1,22.93,6.18,2.26,2.26,0,0,1,1,3,55.49,55.49,0,0,1-52.42,31Z" transform="translate(-478.87 -300.94)"/><ellipse class="cls-3" cx="1175.04" cy="362.38" rx="38.05" ry="16.03" transform="translate(-533.25 85.25) rotate(-18.25)"/><ellipse class="cls-4" cx="1175.04" cy="362.38" rx="30.29" ry="1.28" transform="translate(-533.25 85.25) rotate(-18.25)"/><circle class="cls-1" cx="480.69" cy="227.3" r="190.25"/><circle class="cls-2" cx="480.69" cy="227.3" r="185.93"/><path class="cls-5" d="M1131.86,506c-3-1-4.67,1-6.13,2.87-9.2,11.52-21.85,16.38-35.84,17.45-8.77.66-14.53,4.57-19.22,11.4-4.83,7-9.12,14.49-14.87,20.84-6.14,6.79-8.85,6-11.62-2.89-2.33-7.47-3-15.33-5.33-22.8-1.26-4-2.86-8.28-7.32-9.42-6.21-1.59-11.62-5.14-17.78-6.63-3.68-.9-5.92-2.71-7.24-6.34-2.26-6.2-7-8.33-13.43-7.34a86.92,86.92,0,0,0-13.47,3.43c-5.1,1.67-10.26,3.31-15.64,3.67-5.88.39-8-1.88-7.89-7.74.25-9.58,3.47-13.73,12.49-16.07,8.34-2.17,10.25-5.69,7.28-13.94a61.84,61.84,0,0,1-3.23-11.23c-1.39-8.69.43-12.51,7.78-17.11,4.85-3,10.27-4.44,15.66-6,2.85-.82,5.86-1.86,6.33-5.3.5-3.67-2-6-4.84-7.54a29.92,29.92,0,0,0-18.39-3.48,71.46,71.46,0,0,1-13.14.76c-2.09-.14-4.92.51-5.78-2s1.56-4.06,3.38-5c15.77-8.44,32-14.71,50.35-9.29,4,1.18,8,2.85,12.17,1.92,11.41-2.57,23-4.87,33.27-10.8,2.63-1.51,5.88-2.95,4.92-7.11a158.77,158.77,0,0,0-83.21-33.85c-5.51,6.57-13.35,10.22-19.7,15.63-10.94,9.32-23.06,7.44-35.28,5.3-5.67-1-6.32-4.29-2.58-9,2-2.48,4.76-4.2,6.64-6.74,1.56-2.09,3-4.54-1.74-4.26a182.09,182.09,0,0,0-32.56,9.16c-3.59,2.33-2.77,5.84-2.58,9.25.59,10.76,1.31,21.79-3.83,31.6a105.37,105.37,0,0,0-9.14,25.32c-3.4,14.57-4.1,14.84-19.39,14.87-1.23,0-2.45,0-3.67,0-10,.17-11.73,1.22-15,10.53-1.88,5.29-4.51,9.55-9.81,12.08-5.7,2.73-7.82,7.7-7.6,13.87.13,3.43,1,6.77,1.07,10.19.28,9-3.42,11.51-11.85,8.24-7-2.72-11.13-8.47-15.14-14.37-1.69-2.49-2.69-5.94-6.75-5.68q-1.63,7.29-3.28,14.57c-1.32,3.93.69,7.12,2.46,10.26,4.48,7.93,11.39,12.14,20.27,14.17,12.09,2.76,13.78,6.18,10.07,17.85-1.44,4.5-.46,8.13,3.26,11,2.31,1.81,4.81,3.32,7.18,5,8.38,6.05,9,9.53,1.91,17-7.85,8.33-15.73,16.65-24.79,23.75-2.54,2-6.08,3.58-5.59,7.85,12,26,30.2,47,52.93,64.07,70.27,52.93,173.12,42.6,231.43-23.19,1.89-5.77-3.12-8.12-5.91-11.35-7.58-8.79-8.15-19.29-1.27-28.64,7.58-10.3,17.6-15.8,30.47-16,4.09-.08,8.37.5,11.85-2.53C1132.38,560.25,1134.78,533.43,1131.86,506Z" transform="translate(-478.87 -300.94)"/><path class="cls-6" d="M1112.7,446.66c-12-22.4-27.6-41.57-48.37-56.38-11.39,11.55-26.89,12.41-41.38,15.84-1.06.25-2.42-.34-3.53-.79-20.65-8.41-39.13-1.24-57.3,8a29.86,29.86,0,0,0-3.61,2.46,5.44,5.44,0,0,0-2.17,6.44c.77,2.63,3,3,5.28,3,5.6-.16,11.23-.24,16.79-.88a34.79,34.79,0,0,1,15.81,1.8c3,1,6.65,2.46,6.71,6,.06,4-4.28,3.32-6.83,4-24.26,6.57-30.28,14.77-19.76,38.89,2.31,5.28,1.38,8.62-5,8.87-9,.35-13.5,4.55-15.2,13.82-2.41,13.14,1.43,17.85,14.25,14.66,8.27-2.06,16.37-4.76,24.64-6.8,6.49-1.6,11.17.26,11.8,7.83.2,2.37,1.26,5.11,3.39,5.11,7.21,0,12.51,5.5,19.13,6.23,5.48.6,7.67,3.29,8.81,8,2.22,9.23,4.09,18.57,6.91,27.61,2.47,7.91,6.17,8.52,12,2.88,7.48-7.18,12.06-16.49,18-24.81,4.15-5.83,8.48-9.72,16.58-9.66,10.89.09,20.94-4,30-10.21,4.92-3.38,7.3-9.11,12.14-12.48C1128.42,485.29,1122.67,465.33,1112.7,446.66Z" transform="translate(-478.87 -300.94)"/><path class="cls-6" d="M895.9,366.55C843.17,389,808.28,427.3,792.19,482.48c2,1.82,2.91,4.38,4.3,6.63,5.08,8.27,11.31,15.25,21.44,17.44,6.76,1.46,9.48-.34,10.53-7.23.79-5.16-.5-10.2-1-15.26-.65-6.17,1.12-10.35,7.38-12.4,4.1-1.35,6.78-4.32,8.41-8.53,5.21-13.52,5.31-13.48,19.92-12.79,1.22.06,2.44.08,3.66.08,9.48,0,12-2.41,14.74-11.61,2.23-7.44,1.37-15.94,6-22.38,7.34-10.16,8.27-21.46,8.5-33.31C896.17,377.58,893.74,372.08,895.9,366.55Z" transform="translate(-478.87 -300.94)"/><path class="cls-6" d="M835.08,554.3c-2.59-1.8-5.17-3.64-7.9-5.21-4.79-2.76-5.5-5.87-2.44-10.74,4.49-7.14,2.45-13-5-16.69a31.27,31.27,0,0,0-9-2.88c-12.41-2-18.13-10.9-21.81-21.74-2.38,4.31-.86,9-1.45,13.54-4.3,32.82,1.52,63.9,16.22,93.42,1.24-1.14,2.4-2.39,3.73-3.41a211.87,211.87,0,0,0,30.13-28.53C844.36,564.34,843.55,560.19,835.08,554.3Z" transform="translate(-478.87 -300.94)"/><path class="cls-6" d="M1086.49,595c-15.51,12.67-18,31.22-3.67,43.06,2.12,1.76,4.61,3.66,5.22,6.78,16-16.92,27.15-36.8,35.14-58.54-2,0-3.9.2-5.84.14C1106.17,586.14,1095.61,587.59,1086.49,595Z" transform="translate(-478.87 -300.94)"/><path class="cls-6" d="M924.24,379.56c14,3,28,5.05,39.74-6.68a19.59,19.59,0,0,1,6.79-4.25c5.81-2.19,9-6.36,10.35-12.19-17.62-3.47-35.14-1.4-52.66.95,1.72.69,2.37,1.43.58,3a73.07,73.07,0,0,0-8.52,7.95C916.15,373.49,917.6,378.16,924.24,379.56Z" transform="translate(-478.87 -300.94)"/><path class="cls-6" d="M1005.7,565.88c-2.4-11.68-18.45-25.94-30.53-26.12-10-.14-19-2.69-26.25-9.31-7.49-6.85-14.8-5.59-22.81-1.71-4.64,2.25-9.2,4.7-12.92,8.21-7.2,6.78-13.38,14.28-12.91,26.15-.62,5.36,2.06,10.29,6.77,14.4a61.86,61.86,0,0,0,17.3,10.73c6.35,2.6,10.45,6.87,11.2,14,.36,3.38,1.14,6.71,1.81,10,2.71,13.6,4.3,27.55,11.64,39.76,5.55,9.23,10.85,10,17.68,2,12.63-14.76,22.6-31.07,27.63-50.12,2.9-11,4.34-22.56,11-32.35C1006.43,569.89,1006.09,567.81,1005.7,565.88Z" transform="translate(-478.87 -300.94)"/><path class="cls-6" d="M1014.15,610.28c-3.45-1.32-5.79,2.06-7.51,4.63a58.8,58.8,0,0,0-9.72,29.43c.87,2.49-1.44,6.48,2.56,7.35,3.29.72,5-2.47,6.46-5a84.89,84.89,0,0,0,9.51-28.14C1015.94,615.63,1018.12,611.81,1014.15,610.28Z" transform="translate(-478.87 -300.94)"/><path class="cls-1" d="M591.51,624.1c-.66,0-1.32,0-2-.07-14.79-1.1-22.21-1.65-37.08-2.81-11.81-.93-20.85-9.39-21-19.69-.07-3.88-.14-7.49-.22-11,0,0-.09-3.86-.12-5.54H502c-12.74,0-23.11-9-23.11-20.08V539.37c0-11.07,10.37-20.07,23.11-20.07h77.23c0-.63-.07-4.34-.08-5.41-25,.18-49.51.42-72.88.7h-.32a24.79,24.79,0,0,1-16.27-5.82,18.93,18.93,0,0,1-6.84-14.36l.17-26.18c.06-9.67,8.05-17.93,19-19.65,43.36-6.8,87.7-12.56,135.55-17.61a25.89,25.89,0,0,1,2.78-.15A25.06,25.06,0,0,1,656,436.14a18.84,18.84,0,0,1,7.42,15.57l-.37,8.07C662,481.51,661,504,660.22,526a18.68,18.68,0,0,1,5.86,13.35v25.56C666.08,576,655.71,585,643,585H614.18q.09,3.86.18,7.8c.09,3.57.17,7.18.25,10.85a18.93,18.93,0,0,1-7.32,15A25,25,0,0,1,591.51,624.1Z" transform="translate(-478.87 -300.94)"/><path class="cls-1" d="M813,640.89c-.38,0-.75,0-1.13,0-13.8-.58-20.4-.93-33.62-1.75a25.6,25.6,0,0,1-10.45-2.91C757,635.5,750.09,635,738.12,634a24.05,24.05,0,0,1-16.82-8.65,50.45,50.45,0,0,1-17.77,3.08c-1.65,0-3.36-.07-5.09-.21-17.6-1.44-31.35-9.32-40.87-23.43-9-13.38-12.22-30.09-12.22-40.33V535a48.33,48.33,0,0,1,3.51-18.55,18.54,18.54,0,0,1-5.47-13c0-6.19.1-12.17.25-20.45.08-4.91.18-10.59.28-17.54.13-9.16,7.51-17,17.44-19.21,0-1.39,0-2.72.06-4,.17-10.16,9.07-18.62,20.7-19.68,12.92-1.18,19.39-1.74,32.42-2.85.76-.06,1.51-.09,2.26-.09a25.63,25.63,0,0,1,12,2.89,25.43,25.43,0,0,1,10.07-2.88c14.07-1.06,20.94-1.52,35-2.33.51,0,1,0,1.53,0s1,0,1.56.05a26,26,0,0,1,3.06-.35c13.32-.72,19.94-1,33.73-1.55l1,0a24.8,24.8,0,0,1,16.33,5.87,18.81,18.81,0,0,1,6.76,15.06c-2.82,57.6-3.37,117.82-1.68,184.1a18.93,18.93,0,0,1-7,14.83A24.92,24.92,0,0,1,813,640.89Z" transform="translate(-478.87 -300.94)"/><path class="cls-1" d="M958.22,643.13c-7,0-13.34,0-22.46,0a24.32,24.32,0,0,1-18.93-8.67A24.42,24.42,0,0,1,898,642.89h-.34c-13.74-.12-20.7-.21-34.6-.48-12.45-.24-22.38-8.9-22.59-19.72-.26-12.65-.49-26.36-.72-41.77h-4.62c-12.75,0-23.11-9-23.11-20.08V537a18.56,18.56,0,0,1,5.36-12.85l-2.81-10.57a18,18,0,0,1,4.43-17l.31-.33a17.84,17.84,0,0,1-2.7-10.11c.15-4.05.54-14.7.54-14.7.42-11.52.85-23.44,1.43-35.2C819.1,425.72,829,417.28,841,417c25.74-.63,53.13-1,83.72-1.1a25.93,25.93,0,0,1,11.14-2.51l23.63,0h13.11c12.74,0,23.09,9,23.09,20.08V623c0,11.05-10.34,20.05-23.06,20.08Z" transform="translate(-478.87 -300.94)"/><path class="cls-1" d="M1155.55,637.6a25.12,25.12,0,0,1-15.53-5.21c-.42-.34-.84-.69-1.23-1q-.57,0-1.14,0c-14.3-.67-27.07-7-38-18.72l-.32-.34c-.18.23-.37.45-.55.67-10.41,12.28-22.61,19.43-36.26,21.25a27.5,27.5,0,0,1-3.52.23,25.6,25.6,0,0,1-13.85-4,19.84,19.84,0,0,1-9-13.42c-.66-4.27-1.27-8.57-1.88-12.86l0-.3c-1.64-11.54-3.34-23.47-5.86-34.69a18.11,18.11,0,0,1,4.17-15.87,24.16,24.16,0,0,1,16.32-8c1.43-.12,2.88-3,3.62-4.66,3.19-7.32,5-16.22,5.62-27.74H1055a24.84,24.84,0,0,1-16.36-5.89,18.94,18.94,0,0,1-6.75-14.24s.12-47.79.15-56.36a19,19,0,0,1,7-14.3,24.89,24.89,0,0,1,16.16-5.72h.46c35.49.59,62.87,1.62,88.79,3.32l.93.08a26,26,0,0,1,10.24-2.08c.68,0,1.38,0,2.07.08,15,1.18,20.36,1.66,38.4,3.68,11.63,1.3,20.29,10,20.15,20.16-.8,55.47-.84,111.85-.87,166.37v6c0,10.07-8.69,18.63-20.2,19.9-14.81,1.64-22.34,2.43-37.38,3.66C1157,637.57,1156.27,637.6,1155.55,637.6Z" transform="translate(-478.87 -300.94)"/><path class="cls-1" d="M1267.8,627.24a25.13,25.13,0,0,1-15.62-5.28,19,19,0,0,1-7.49-14.75l-.06-22.2h-28.88c-12.74,0-23.11-9-23.11-20.08V539.37c0-11.07,10.37-20.07,23.11-20.07h77.13c0-.59,0-1.18-.07-1.75l5.33-.33-5.33.16c0-1.1-.1-2.21-.13-3.36q-36.24-.15-72.46-.33a24.89,24.89,0,0,1-16.94-6.56,18.56,18.56,0,0,1-5.94-15.26c.71-7.12,1.32-14.36,1.9-21.36.69-8.18,1.39-16.56,2.26-24.88a19.62,19.62,0,0,1,8.5-13.81,25.48,25.48,0,0,1,14.52-4.45,26.45,26.45,0,0,1,2.81.15l32.83,3.47.31,0c32,3.37,65,6.86,97.5,10.51,12.14,1.36,21,10.74,20.09,21.35-1.68,20.24-3.37,41.77-4.07,63.13a18.68,18.68,0,0,1,5.86,13.35v25.56c0,11.07-10.37,20.08-23.11,20.08h-28.92c0,2.79.22,19.39.22,19.39.12,10.54-9.26,19.42-21.36,20.21-15.27,1-22.41,1.49-36.93,2.56C1269.09,627.22,1268.44,627.24,1267.8,627.24Z" transform="translate(-478.87 -300.94)"/><path class="cls-1" d="M1397.12,620.11c-10.44,0-19.85-3.28-27.23-9.49a34.15,34.15,0,0,1-12.46-26.42,35.34,35.34,0,0,1,4.54-18.34,17.88,17.88,0,0,1-1.83-6.75l-2-29.3c0-.31,0-.6,0-.89-.34-20.48-.45-41.59-.35-64.51a19,19,0,0,1,8-15.09,25.23,25.23,0,0,1,15.14-4.92,28.12,28.12,0,0,1,3.18.19c13.73,1.66,20.93,2.55,36.48,4.57,11.39,1.48,19.85,10.14,19.69,20.14l-1,59.63c0,.28,0,.57,0,.86l-2,29.32a18.1,18.1,0,0,1-1.7,6.49,32.82,32.82,0,0,1,4.49,16.88,34.62,34.62,0,0,1-11.11,25.5c-7.32,7-17,11.13-27.88,12C1399.75,620.06,1398.42,620.11,1397.12,620.11Z" transform="translate(-478.87 -300.94)"/><path class="cls-7" d="M591.51,608.66l-.46,0c-14.76-1.09-22.15-1.64-37-2.81a5,5,0,0,1-4.85-4.54c-.07-4.07-.16-7.85-.24-11.5-.15-6.76-.29-13.21-.34-20.23H502c-3,0-5.34-2.07-5.34-4.63V539.37c0-2.55,2.39-4.63,5.34-4.63H643c2.95,0,5.33,2.08,5.33,4.63v25.56c0,2.56-2.38,4.63-5.33,4.63H596.16c.05,7.72.24,15.46.43,23.57.09,3.56.17,7.15.25,10.81a4.41,4.41,0,0,1-1.69,3.47A5.84,5.84,0,0,1,591.51,608.66Zm10.86-77.43c-2.94,0-5.33-2.07-5.33-4.63,0-3.92,0-6.92-.09-9.69-.08-5.49-.16-10,.15-18.59-31.48.2-62.1.48-91.1.83h-.07a5.78,5.78,0,0,1-3.76-1.34,4.36,4.36,0,0,1-1.58-3.32l.17-26.18a4.87,4.87,0,0,1,4.39-4.53c43-6.75,87-12.47,134.53-17.48l.64,0a5.81,5.81,0,0,1,3.62,1.22,4.35,4.35,0,0,1,1.71,3.6l-.36,7.78c-1,22.24-2.11,45.24-2.87,67.86-.09,2.51-2.45,4.5-5.34,4.5Z" transform="translate(-478.87 -300.94)"/><path class="cls-7" d="M812.77,625.44c-13.65-.58-20.17-.92-33.23-1.73a5.38,5.38,0,0,1-4.49-2.73,6.42,6.42,0,0,1-1.16.11h-.39c-13.71-.87-20.31-1.36-33.65-2.49A5,5,0,0,1,735,614q-.1-15.76-.16-31.1a60.08,60.08,0,0,1-6.72,16.44c-5.82,9.15-13.87,13.6-24.63,13.6-1.1,0-2.26-.05-3.43-.14-11.74-1-20.64-6.15-27.19-15.86-6.76-10-9.79-23.55-9.79-32.52V535c0-10,3.48-18.11,10.33-24.27a34.6,34.6,0,0,1,3.31-2.62H666.5c-3,0-5.33-2.07-5.33-4.63,0-6.07.1-12,.24-20.23.09-4.91.19-10.61.29-17.57,0-2.41,2.19-4.4,5-4.57l12.33-.74c.07-8.15.12-13,.2-17.91a4.94,4.94,0,0,1,4.78-4.54c12.88-1.17,19.33-1.73,32.31-2.84l.52,0a5.88,5.88,0,0,1,3.59,1.2,4.41,4.41,0,0,1,1.74,3.45c0,4.68,0,9.73,0,18.22,3.72-.21,6.86-.38,11.92-.64h.32a6,6,0,0,1,.94.07q.09-8.93.21-17.77c0-2.38,2.13-4.35,4.87-4.56,13.9-1.05,20.7-1.5,34.65-2.31h.35a6,6,0,0,1,2.75.67,5.89,5.89,0,0,1,3-1c13.22-.71,19.78-1,33.4-1.53h.23a5.77,5.77,0,0,1,3.77,1.36,4.33,4.33,0,0,1,1.56,3.47c-2.83,58-3.39,118.5-1.69,185.1a4.36,4.36,0,0,1-1.61,3.42,5.82,5.82,0,0,1-3.72,1.31ZM723.93,508.06a35.56,35.56,0,0,1,3.41,2.74,30.79,30.79,0,0,1,7.51,10.45q0-6.64,0-13.23a6,6,0,0,1-.74,0Z" transform="translate(-478.87 -300.94)"/><path class="cls-7" d="M958.22,627.68c-7,0-13.31,0-22.41,0-2.93,0-5.31-2.07-5.32-4.62v-8.7c-7.71,0-13-.05-22-.11a5.37,5.37,0,0,1-4.95-3c-.06,3.9-.14,7.79-.23,11.69-.06,2.52-2.44,4.53-5.33,4.53H898c-13.79-.12-20.71-.2-34.49-.47-2.86-.05-5.16-2.06-5.21-4.55-.34-16.81-.64-35-.93-56.95H835.14c-2.95,0-5.34-2.07-5.34-4.63V537c0-2.56,2.39-4.63,5.34-4.63h2.68s-5.92-22.27-5.92-22.27a4.18,4.18,0,0,1,1-3.93,5.68,5.68,0,0,1,4.17-1.74l2.7,0,2.27,0c6.18,0,10.18,0,13.45-13.08l-15.8,0a5.73,5.73,0,0,1-3.82-1.41,4.34,4.34,0,0,1-1.51-3.38q.29-7.1.53-14.2c.42-11.65.86-23.7,1.44-35.56.11-2.43,2.38-4.37,5.17-4.43,25.71-.63,53.05-1,83.6-1.09h0a5.8,5.8,0,0,1,3.78,1.36,4.33,4.33,0,0,1,1.55,3.3q-.12,17.85-.21,35.71l-.08,15.12c0,2.55-2.4,4.61-5.33,4.61l-16.06,0c2.61,13.07,6.69,13.07,12.56,13.07l2.45,0,2.91,0a5.78,5.78,0,0,1,3.73,1.31c0-23.25.09-47.22.16-72.28,0-2.55,2.39-4.61,5.32-4.62l23.59,0h13.1c2.94,0,5.32,2.08,5.32,4.64V623c0,2.56-2.38,4.63-5.32,4.63C967,627.68,962.49,627.68,958.22,627.68Zm-28.37-95.32a5.24,5.24,0,0,1,.56,0q0-8.29,0-16.71L926,532.36Zm-31.15,0-1-.36a59.92,59.92,0,0,1-15.7-8.18A61.89,61.89,0,0,1,866.15,532l-1,.36Z" transform="translate(-478.87 -300.94)"/><path class="cls-7" d="M1155.55,622.15A5.76,5.76,0,0,1,1152,621a4.36,4.36,0,0,1-1.75-3.41q-.08-21.36-.12-43.4c-1.66,8.63-2.93,17.41-4.17,26-.58,3.94-1.15,7.86-1.75,11.78a5.14,5.14,0,0,1-5.28,4h-.29c-9-.43-17.49-4.79-25.08-13-5.46-5.87-10.29-14.92-14.6-23.42-4.27,8.58-9.07,18-14.43,24.28-7.62,9-15.68,14-24.65,15.14a5.52,5.52,0,0,1-.81.06,5.81,5.81,0,0,1-3.19-.93,4.53,4.53,0,0,1-2.09-3.09c-.67-4.33-1.28-8.68-1.9-13-1.68-11.8-3.42-24-6.06-35.75a4.16,4.16,0,0,1,1-3.66,5.54,5.54,0,0,1,3.76-1.84c8.53-.71,14.6-5.47,18.57-14.58,6.41-14.74,7.14-31.79,7-46.53,0-.76,0-1.42,0-2.12H1055a5.78,5.78,0,0,1-3.78-1.36,4.39,4.39,0,0,1-1.56-3.29l.07-26.4q0-15,.08-30a4.4,4.4,0,0,1,1.61-3.3,5.74,5.74,0,0,1,3.73-1.32h.1c35.17.59,62.25,1.6,87.8,3.28,2.79.19,4.94,2.21,4.93,4.64l-.19,53.27a4.34,4.34,0,0,1-1.58,3.28,5.73,5.73,0,0,1-3.75,1.34h0c-8.57-.05-13.65-.08-20.93-.1,0,.66,0,1.29,0,2,0,13.1,1.27,24.47,3.78,33.78,2.42,9,5.73,15.93,9.82,20.55,3.66,4.13,7.61,6.37,12.09,6.83a5.71,5.71,0,0,1,2.92,1.15c0-39.07,0-80.08.13-124.06a4.41,4.41,0,0,1,1.74-3.41,5.77,5.77,0,0,1,3.6-1.21h.47c15,1.17,19.86,1.61,37.72,3.61a4.91,4.91,0,0,1,4.65,4.66c-.8,55.51-.83,112-.86,166.56v6a4.91,4.91,0,0,1-4.66,4.59c-14.63,1.62-22,2.4-36.81,3.6A4.1,4.1,0,0,1,1155.55,622.15Z" transform="translate(-478.87 -300.94)"/><path class="cls-7" d="M1267.8,611.8a5.87,5.87,0,0,1-3.61-1.22,4.4,4.4,0,0,1-1.72-3.41l0-8.54c0-9.71,0-20-.06-29.07h-46.63c-3,0-5.34-2.07-5.34-4.63V539.37c0-2.55,2.39-4.63,5.34-4.63h141c2.94,0,5.33,2.08,5.33,4.63v25.56c0,2.56-2.39,4.63-5.33,4.63h-46.82c0,8.14.13,16.62.23,24.87l.12,10.12c0,2.44-2.13,4.48-4.93,4.66-15.31,1-22.47,1.49-37.09,2.57Zm48.35-80.57c-3,0-5.33-2.07-5.33-4.63,0-3.86-.13-6.85-.25-9.74a114.57,114.57,0,0,1,.37-18.22q-45.3-.17-90.61-.4a5.71,5.71,0,0,1-3.91-1.51,4.27,4.27,0,0,1-1.37-3.52c.72-7.18,1.33-14.5,1.93-21.59.67-8.05,1.36-16.39,2.23-24.59a4.48,4.48,0,0,1,2-3.19,5.82,5.82,0,0,1,3.35-1,4.58,4.58,0,0,1,.64,0l32.86,3.47c32,3.39,65.13,6.88,97.67,10.53,2.81.32,4.84,2.48,4.64,4.93-1.72,20.76-3.46,42.87-4.14,64.94-.08,2.51-2.44,4.51-5.33,4.51Z" transform="translate(-478.87 -300.94)"/><path class="cls-7" d="M1397.12,604.66a22.39,22.39,0,0,1-14.86-5.13A19.73,19.73,0,0,1,1375.2,584c-.09-6.67,2.13-12.1,6.59-16.15a22.81,22.81,0,0,1,10.2-5.29h-8.78c-2.83,0-5.16-1.92-5.33-4.37,0,0-2-29.43-2-29.5-.33-20.37-.45-41.39-.35-64.25a4.44,4.44,0,0,1,1.84-3.48,5.87,5.87,0,0,1,3.49-1.13,6.12,6.12,0,0,1,.74,0c13.69,1.65,20.86,2.54,36.29,4.54a4.89,4.89,0,0,1,4.55,4.65s-1,59.76-1,59.83l-2,29.3c-.17,2.45-2.5,4.37-5.33,4.37h-8.75a23.43,23.43,0,0,1,10.06,5,18.74,18.74,0,0,1,6.77,14.85,20.21,20.21,0,0,1-6.49,15.12,25.79,25.79,0,0,1-16.28,7C1398.69,604.63,1397.89,604.66,1397.12,604.66Z" transform="translate(-478.87 -300.94)"/><path class="cls-2" d="M591.51,619.47c-.51,0-1,0-1.51-.06-14.79-1.09-22.2-1.64-37.07-2.81-9-.71-16-7.24-16.17-15.14-.08-4.06-.16-7.83-.24-11.47-.07-3.24-.14-6.41-.2-9.62H502c-9.82,0-17.78-6.91-17.78-15.44V539.37c0-8.52,8-15.44,17.78-15.44h82.61c0-2.61-.05-4.81-.08-6.87,0-2.59-.08-5-.07-7.84-27,.19-53.23.43-78.27.74h-.24a19.24,19.24,0,0,1-12.52-4.48,14.48,14.48,0,0,1-5.26-11.05l.17-26.18c.05-7.44,6.19-13.79,14.62-15.11,43.26-6.79,87.5-12.53,135.24-17.57a20,20,0,0,1,14.2,4,14.52,14.52,0,0,1,5.71,12l-.37,7.78c-1,22.22-2.1,45.19-2.87,67.75,0,.27,0,.54-.05.8a14.61,14.61,0,0,1,6,11.52v25.56c0,8.53-8,15.44-17.78,15.44H608.75c.08,4.11.18,8.27.28,12.54q.13,5.34.25,10.84a14.54,14.54,0,0,1-5.63,11.55A19.31,19.31,0,0,1,591.51,619.47Z" transform="translate(-478.87 -300.94)"/><path class="cls-2" d="M813,636.25h-.87c-13.76-.59-20.34-.93-33.5-1.75a19.42,19.42,0,0,1-9-2.82c-11.78-.76-18.67-1.28-31-2.33-7-.59-12.81-4.72-15-10.25a43.21,43.21,0,0,1-20.07,4.66c-1.49,0-3-.06-4.59-.19-15.8-1.29-28.17-8.41-36.77-21.15-8.48-12.58-11.49-28.33-11.49-38V535a43,43,0,0,1,4.43-19.66,14.74,14.74,0,0,1-6.39-11.86c0-6.16.11-12.13.25-20.4.09-4.9.19-10.58.29-17.53.11-8,7.3-14.66,16.53-15.22l.85,0c0-3,.07-5.46.11-8,.13-7.82,7-14.32,15.92-15.13,12.91-1.18,19.38-1.74,32.4-2.85.58,0,1.15-.07,1.73-.07a19.36,19.36,0,0,1,12,4h0a19.1,19.1,0,0,1,10.51-4c14-1.06,20.86-1.52,34.91-2.32.39,0,.78,0,1.17,0,.64,0,1.27,0,1.9.09a21.73,21.73,0,0,1,3-.4c13.32-.72,19.92-1,33.64-1.54l.77,0a19.22,19.22,0,0,1,12.56,4.52,14.4,14.4,0,0,1,5.2,11.58c-2.82,57.72-3.37,118-1.68,184.4a14.51,14.51,0,0,1-5.37,11.41A19.29,19.29,0,0,1,813,636.25Z" transform="translate(-478.87 -300.94)"/><path class="cls-2" d="M958.22,638.49c-7,0-13.33,0-22.45,0s-16.4-5.84-17.56-13.37l-2.62,0c-1.25,7.49-8.67,13.2-17.58,13.2h-.18c-13.86-.12-20.8-.2-34.64-.47-9.54-.19-17.22-6.88-17.38-15.17-.28-14-.54-29-.79-46.33h-9.88c-9.82,0-17.78-6.91-17.78-15.44V537a14.59,14.59,0,0,1,5.87-11.47l-3.46-13a13.92,13.92,0,0,1,3.41-13.08,16.51,16.51,0,0,1,3-2.61A14.22,14.22,0,0,1,822,486.26q.27-7.08.52-14.18c.42-11.68.86-23.76,1.44-35.68.4-8.1,7.94-14.55,17.26-14.78,25.81-.63,53.25-1,83.9-1.09h.07c.35,0,.69,0,1,0a19.74,19.74,0,0,1,9.72-2.53l23.62,0h13.11c9.81,0,17.76,6.93,17.76,15.45q0,94.8,0,189.59c0,8.52-7.94,15.43-17.74,15.45Z" transform="translate(-478.87 -300.94)"/><path class="cls-2" d="M1155.55,633a19.32,19.32,0,0,1-11.94-4,16.28,16.28,0,0,1-2.45-2.38,20.91,20.91,0,0,1-2.25.13c-.33,0-.65,0-1,0-12.73-.59-24.2-6.31-34.1-17a58.77,58.77,0,0,1-4.66-5.76,68.42,68.42,0,0,1-4.66,6.24C1085,621.43,1074,628,1061.74,629.59a20.3,20.3,0,0,1-2.7.18,19.66,19.66,0,0,1-10.66-3.08,15.2,15.2,0,0,1-7-10.33c-.67-4.36-1.29-8.74-1.91-13.12-1.66-11.62-3.37-23.64-5.93-35a13.91,13.91,0,0,1,3.21-12.2,18.54,18.54,0,0,1,12.56-6.13c1.61-.14,5-.41,8.1-7.64,4.53-10.41,5.86-22.56,6.15-34H1055a19.18,19.18,0,0,1-12.58-4.54,14.48,14.48,0,0,1-5.2-10.95l.07-26.41q0-15,.08-30a14.52,14.52,0,0,1,5.35-11,19.26,19.26,0,0,1,12.43-4.4h.34c35.41.6,62.71,1.62,88.5,3.31a21.56,21.56,0,0,1,2.3.28,19.92,19.92,0,0,1,9.28-2.26q.79,0,1.59.06c14.93,1.16,20.24,1.64,38.19,3.65,9,1,15.62,7.68,15.5,15.51C1210,497,1210,553.42,1210,608v6c0,7.78-6.66,14.34-15.54,15.32-14.77,1.63-22.28,2.41-37.21,3.64C1156.66,632.94,1156.1,633,1155.55,633Zm-21.42-124.58a108.65,108.65,0,0,0,3.23,22.45c.09.32.17.63.26.93q0-11.55,0-23.36Z" transform="translate(-478.87 -300.94)"/><path class="cls-2" d="M1267.8,622.61a19.35,19.35,0,0,1-12-4.06A14.6,14.6,0,0,1,1250,607.2s0-20.79-.07-26.83h-34.2c-9.82,0-17.78-6.91-17.78-15.44V539.37c0-8.52,8-15.44,17.78-15.44h82.6c0-2.47-.13-4.6-.21-6.68-.11-2.55-.21-5-.21-7.85q-38.84-.15-77.68-.35a19.08,19.08,0,0,1-13-5,14.2,14.2,0,0,1-4.56-11.74c.71-7.1,1.31-14.39,1.9-21.43.68-8.11,1.38-16.49,2.25-24.79a15,15,0,0,1,6.54-10.62,19.84,19.84,0,0,1,13.33-3.31l32.84,3.47c32,3.39,65.18,6.88,97.77,10.54,9.35,1.05,16.13,8.26,15.45,16.43-1.71,20.63-3.43,42.61-4.11,64.45,0,.29,0,.56-.06.84a14.6,14.6,0,0,1,5.94,11.52v25.56c0,8.53-8,15.44-17.77,15.44h-34.3c0,4.65.1,9.33.15,13.94l.12,10.14c.09,8.13-7.1,14.93-16.43,15.54-15.27,1-22.42,1.49-37,2.56Q1268.55,622.61,1267.8,622.61Z" transform="translate(-478.87 -300.94)"/><path class="cls-2" d="M1397.12,615.47a36,36,0,0,1-23.52-8.18,29.92,29.92,0,0,1-10.84-23.14,30.94,30.94,0,0,1,5.23-18.23,14,14,0,0,1-2.53-7.08l-2-29.3,0-.68c-.33-20.44-.45-41.51-.35-64.44a14.68,14.68,0,0,1,6.12-11.6,19.4,19.4,0,0,1,11.65-3.78,19.85,19.85,0,0,1,2.44.14c13.75,1.66,20.94,2.55,36.43,4.56,8.8,1.14,15.28,7.77,15.15,15.5l-1,59.62,0,.68-2,29.3a14,14,0,0,1-2.4,6.9,28.67,28.67,0,0,1,5.18,16.74,30.38,30.38,0,0,1-9.73,22.39,39.16,39.16,0,0,1-24.4,10.47C1399.43,615.43,1398.26,615.47,1397.12,615.47Z" transform="translate(-478.87 -300.94)"/><path class="cls-7" d="M590.81,564.93c0,12.74.41,25.51.7,39.1-14.75-1.1-22.14-1.65-37-2.81-.24-13.31-.59-23.55-.59-36.29H502V539.37H643v25.56Zm11.81-71.27c-.74,17-.25,20.13-.25,32.94h34.71c.86-25.24,2.07-50.47,3.24-75.7-45,4.75-89.63,10.45-134.23,17.44-.06,10.38-.1,15.78-.16,26.18Q554.28,493.92,602.62,493.66Z" transform="translate(-478.87 -300.94)"/><path class="cls-7" d="M734.34,461.86c-.1,21.26-.19,31.89-.19,41.57H666.5c0-9.68.27-19.23.53-37.74,6.9-.42,10.35-.63,17.26-1,.09-10.85.14-16.48.23-22.18,12.87-1.17,19.31-1.73,32.28-2.84,0,5.53,0,11.58,0,23.18C723.7,462.43,727,462.24,734.34,461.86ZM677.51,594.6c-5.92-8.77-9-21.43-9-30.18V535q0-13.12,8.82-21.05T700.42,506q14.31,0,23,8t8.73,21v29.47c0,8.63-2.92,23.57-8.7,32.68S710.08,609,700.6,608.19,683.43,603.37,677.51,594.6ZM703,567a3.42,3.42,0,0,0,1-2.4v-30a3.09,3.09,0,0,0-1-2.3,3.54,3.54,0,0,0-2.55-.93,3.91,3.91,0,0,0-2.65.93,3,3,0,0,0-1.08,2.3v30a3.24,3.24,0,0,0,1.09,2.39,3.73,3.73,0,0,0,2.66,1.09A3.33,3.33,0,0,0,703,567Zm110,53.82c-13.16-.56-19.77-.9-33.11-1.72-.6-25.1-1.27-50.18-1.26-75.29h-5.88c0,24.23.59,48.44,1.11,72.66-13.29-.85-20-1.33-33.52-2.49q-.57-87.21.45-174.38c14.11-1.07,21-1.52,34.54-2.3-1.17,27-2.71,54-2.58,81h5.88c-.13-27.1,1.51-54.23,2.76-81.3,13.53-.74,20.17-1,33.3-1.53C811.69,497.42,811.45,558.79,813,620.81Z" transform="translate(-478.87 -300.94)"/><path class="cls-7" d="M929.85,537v23.85h-30.4c-1,20.64-1,41.32-1.44,62-13.78-.12-20.65-.2-34.43-.47q-.62-30.75-1-61.5H835.14V537Zm-92.76-27.94c12.42,0,20.25,2,24.85-22.31-8.88,0-13.33,0-22.23,0,.64-16.57,1.15-33.16,2-49.72q41.73-1,83.47-1.09-.18,25.41-.29,50.83l-22.22,0c3.39,24.48,11.66,22.29,24.08,22.29l-5.88,22.15a63.76,63.76,0,0,1-21.18-3.5A53.34,53.34,0,0,1,882,517.57a55.69,55.69,0,0,1-17.84,10.13A63.76,63.76,0,0,1,843,531.2Zm98.85-75.59c14.5,0,21.9,0,36.66,0V623c-14.76,0-22.14,0-36.78,0,0-4,0-7,0-13.3-10.92,0-16.36-.07-27.24-.14q-.12-21.78-.27-43.55l27.44,0Q935.72,499.73,935.94,433.46Z" transform="translate(-478.87 -300.94)"/><path class="cls-7" d="M1116.14,499.51q0,20.28,3.92,34.84t10.78,22.32c4.58,5.16,9.8,8,15.69,8.6-3.43,15.17-5.27,30.69-7.64,46-7.05-.33-14.12-3.61-21.21-11.26s-13.36-21.69-18.78-32c-5.43,10.34-11.66,24.74-18.69,33s-14.1,12.36-21.17,13.31c-2.49-16.32-4.37-32.89-8-49.06,10.45-.86,18.33-6.72,23-17.55,6.54-15,7.5-32.13,7.36-48.21,0-2,0-3.35,0-6.71H1055q.07-28.17.15-56.36c29.18.49,58.39,1.36,87.5,3.27q-.11,26.64-.19,53.28c-10.5-.06-15.76-.09-26.27-.12C1116.15,496.18,1116.14,497.53,1116.14,499.51Zm39.41-61.74c14.69,1.15,19.68,1.59,37.51,3.59-.83,57.53-.84,115-.87,172.58-14.64,1.61-22,2.38-36.64,3.58Q1155.22,527.64,1155.55,437.77Z" transform="translate(-478.87 -300.94)"/><path class="cls-7" d="M1304.58,564.93c0,12.74.21,26.28.36,39.66-14.85,1-22.29,1.48-37.14,2.57,0-13.59-.09-29.49-.09-42.23h-52V539.37h141v25.56Zm12.24-70.9c-2,15.85-.67,19.76-.67,32.57h34.71c.67-21.8,2.35-43.41,4.15-65.15-43.47-4.88-87-9.38-130.49-14-1.62,15.37-2.62,30.78-4.16,46.16Q1268.6,493.88,1316.82,494Z" transform="translate(-478.87 -300.94)"/><path class="cls-7" d="M1381.25,528.64q-.52-32.08-.36-64.16c14.1,1.7,21.26,2.59,36.24,4.53q-.5,29.82-1,59.63l-2,29.3h-31Zm17.46,37.83a19.35,19.35,0,0,1,13,4.46,14.44,14.44,0,0,1,5.18,11.56,15.92,15.92,0,0,1-5.1,12A20.11,20.11,0,0,1,1399,600c-5.15.4-9.5-.77-13-3.75s-5.36-7.12-5.43-12.24c-.08-5.38,1.62-9.73,5.1-12.88S1393.49,566.47,1398.71,566.47Z" transform="translate(-478.87 -300.94)"/></svg>